<svg xmlns="http://www.w3.org/2000/svg" viewBox="0 0 520 380" width="520" height="380" font-family="system-ui">

<style>
  .bg{fill:#ffffff}.axis{stroke:#444;stroke-width:1}.grid{stroke:#e5e7eb;stroke-width:1}
  .lbl{fill:#444;font:13px system-ui,sans-serif}.ttl{fill:#111;font:600 15px system-ui,sans-serif}
  .tick{fill:#666;font:11px system-ui,sans-serif}
  @media (prefers-color-scheme: dark){
    .bg{fill:#0f1115}.axis{stroke:#c9ced6}.grid{stroke:#2a2f3a}
    .lbl{fill:#c9ced6}.ttl{fill:#f3f4f6}.tick{fill:#9aa3b2}}
</style>

<rect class="bg" x="0" y="0" width="520" height="380"/>
<text x="281.0" y="20" text-anchor="middle" class="ttl">Reliability — predicted P(complete) vs observed</text>
<line x1="60.0" y1="34.0" x2="60.0" y2="334.0" class="grid"/>
<text x="60.0" y="350.0" text-anchor="middle" class="tick">0.00</text>
<line x1="170.5" y1="34.0" x2="170.5" y2="334.0" class="grid"/>
<text x="170.5" y="350.0" text-anchor="middle" class="tick">0.25</text>
<line x1="281.0" y1="34.0" x2="281.0" y2="334.0" class="grid"/>
<text x="281.0" y="350.0" text-anchor="middle" class="tick">0.50</text>
<line x1="391.5" y1="34.0" x2="391.5" y2="334.0" class="grid"/>
<text x="391.5" y="350.0" text-anchor="middle" class="tick">0.75</text>
<line x1="502.0" y1="34.0" x2="502.0" y2="334.0" class="grid"/>
<text x="502.0" y="350.0" text-anchor="middle" class="tick">1.00</text>
<line x1="60.0" y1="334.0" x2="502.0" y2="334.0" class="grid"/>
<text x="52.0" y="338.0" text-anchor="end" class="tick">0.00</text>
<line x1="60.0" y1="259.0" x2="502.0" y2="259.0" class="grid"/>
<text x="52.0" y="263.0" text-anchor="end" class="tick">0.25</text>
<line x1="60.0" y1="184.0" x2="502.0" y2="184.0" class="grid"/>
<text x="52.0" y="188.0" text-anchor="end" class="tick">0.50</text>
<line x1="60.0" y1="109.0" x2="502.0" y2="109.0" class="grid"/>
<text x="52.0" y="113.0" text-anchor="end" class="tick">0.75</text>
<line x1="60.0" y1="34.0" x2="502.0" y2="34.0" class="grid"/>
<text x="52.0" y="38.0" text-anchor="end" class="tick">1.00</text>
<line x1="60.0" y1="334.0" x2="502.0" y2="334.0" class="axis"/>
<line x1="60.0" y1="34.0" x2="60.0" y2="334.0" class="axis"/>
<polyline points="60.0,334.0 502.0,34.0" fill="none" stroke="#9aa3b2" stroke-width="1.5"/>
<rect x="60.0" y="334.0" width="44.2" height="0.0" fill="#0f766e" fill-opacity="0.75"/>
<rect x="104.2" y="274.0" width="44.2" height="60.0" fill="#0f766e" fill-opacity="0.75"/>
<rect x="148.4" y="334.0" width="44.19999999999999" height="0.0" fill="#0f766e" fill-opacity="0.75"/>
<rect x="192.6" y="334.0" width="44.20000000000002" height="0.0" fill="#0f766e" fill-opacity="0.75"/>
<rect x="236.8" y="184.0" width="44.19999999999999" height="150.0" fill="#0f766e" fill-opacity="0.75"/>
<rect x="281.0" y="34.0" width="44.19999999999999" height="300.0" fill="#0f766e" fill-opacity="0.75"/>
<rect x="325.2" y="184.0" width="44.19999999999999" height="150.0" fill="#0f766e" fill-opacity="0.75"/>
<rect x="369.4" y="133.9" width="44.200000000000045" height="200.1" fill="#0f766e" fill-opacity="0.75"/>
<rect x="413.6" y="34.0" width="44.19999999999999" height="300.0" fill="#0f766e" fill-opacity="0.75"/>
<rect x="457.8" y="35.2" width="44.19999999999999" height="298.8" fill="#0f766e" fill-opacity="0.75"/>
<polyline points="82.1,334.0 126.3,274.0 170.5,334.0 214.7,334.0 258.9,184.0 303.1,34.0 347.3,184.0 391.5,133.9 435.7,34.0 479.9,35.2" fill="none" stroke="#dc2626" stroke-width="2.0"/>
<circle cx="82.1" cy="334.0" r="3.5" fill="#dc2626"/>
<circle cx="126.3" cy="274.0" r="3.5" fill="#dc2626"/>
<circle cx="170.5" cy="334.0" r="3.5" fill="#dc2626"/>
<circle cx="214.7" cy="334.0" r="3.5" fill="#dc2626"/>
<circle cx="258.9" cy="184.0" r="3.5" fill="#dc2626"/>
<circle cx="303.1" cy="34.0" r="3.5" fill="#dc2626"/>
<circle cx="347.3" cy="184.0" r="3.5" fill="#dc2626"/>
<circle cx="391.5" cy="133.9" r="3.5" fill="#dc2626"/>
<circle cx="435.7" cy="34.0" r="3.5" fill="#dc2626"/>
<circle cx="479.9" cy="35.2" r="3.5" fill="#dc2626"/>
<text x="281.0" y="372" text-anchor="middle" class="lbl">Predicted completion probability</text>
<text x="16" y="190.0" text-anchor="middle" class="lbl" transform="rotate(-90 16 190.0)">Observed completion frequency</text>
<rect x="352" y="31" width="12" height="12" fill="#0f766e"/>
<text x="370" y="41" class="tick" text-anchor="start">observed</text>
<rect x="352" y="49" width="12" height="12" fill="#9aa3b2"/>
<text x="370" y="59" class="tick" text-anchor="start">ideal</text>
</svg>
